<?xml version="1.0" encoding="utf-8"?>
<!-- Generator: Adobe Illustrator 21.0.0, SVG Export Plug-In . SVG Version: 6.00 Build 0)  -->
<svg version="1.1" id="Layer_1" xmlns="http://www.w3.org/2000/svg" xmlns:xlink="http://www.w3.org/1999/xlink" x="0px" y="0px"
	 viewBox="0 0 500 500" style="enable-background:new 0 0 500 500;" xml:space="preserve">
<style type="text/css">
	.st0{fill:#E0021B;}
	.st1{fill:#FFFFFF;stroke:#FFFFFF;stroke-width:3;stroke-miterlimit:10;}
</style>
<rect class="st0" width="500" height="500"/>
<g>
	<path class="st1" d="M189.9,150.1c-8.5,61.5-16.5,98.2-20.1,153.4c-1.2,17.2-1.2,17.8,4.1,29.7c6.2,13.9,10.1,29.8,10.3,42.7
		c0.4,10-2,22-4.5,23.5c-1,0.6-4.3,0.4-7.4-0.4c-14-3.8-15.5-20.8-14.8-80.7C121,282.1,84,298.2,74.2,282
		C57.9,255.1,192.1,127.1,256.6,87.4c39.5-24.5,60.7-13.1,68.1-0.8c2.1,3.5,0.4,6.8-1.8,3.1C300.2,53.1,236.8,111.5,189.9,150.1z
		 M178.9,161.1c-7.3,4.4-108.8,100.4-97.3,119.3c6.2,10.2,60.9,7,73.9,28.4c0.6,1,1.4,1.4,1.8,1.2c1-0.6,3.6-26.1,3.7-27.3
		c2.9-32.8,9.7-73.3,18.5-113.7c0.8-3.9,1.1-7.5,0.6-8.3C179.9,160.4,179.5,160.7,178.9,161.1z M169.3,340.2
		c-2.1-3.5-1,33.6,3.5,50.8l1.6-4.9C177.2,375.3,172.5,345.1,169.3,340.2z"/>
	<path class="st1" d="M192.2,345.1c-10.4-17.1,8-64.3,19.2-45.8c1.4,2.3,0.8,4.1-1.7,5.6c-3.3,2-7.1,17.9-6.2,26
		c0.6,5.6,1.4,8.8,2.3,10.3c3.5,5.8,11.8-20.5,12.8-31.1c2.9-29.1-8.2-26.7-17-26.2l3.1-2.4c8.3-6.5,17.6,1.8,20.7,6.8
		c10.3,17.1-2.8,57.8-11.4,63C211.8,352.6,195,349.7,192.2,345.1z"/>
	<path class="st1" d="M239.6,323.3c-3.5-5.8,4.2-55.2,8.9-58.1c2.1-1.3,5.9,0.4,7.3,2.7c1.4,2.3-3.5,37.4-2.9,38.5
		c0.1,0.2,0.5-0.6,0.9-1.4c1.8-3.6,26.6-72.2,42.9-82.9c2.4-1.7,4.5-2.4,6,0.1c4.7,7.7-0.7,67.4,12.6,59.3c8.3-5,20.2-36.2,22-33.2
		c1.1,1.9-5.7,25.4-9.7,32.4c-10,18.3-26.9,6.9-30.1,1.5c-5.1-8-4.9-25.5-4-35.7c1.8-16.8,1.8-16.8-2.3-10
		c-13.9,22.7-36.3,90.9-36.3,90.9C252.3,328.7,241.1,325.8,239.6,323.3z"/>
	<path class="st1" d="M302.1,387c0.6-0.4,2.1,0.7,5.6,4.6c3.9,4.2,16.7,11.5,29.4,3.8c47.1-28.5,47.9-186.4,47.7-186.6
		c-0.8-1.2-3.1,5.3-8.1,19.5c-5.1,14.2-13.4,30-16.9,32.2c-1.9,1.1-17.7-1.5-20.2-5.7c-4.7-7.7-4.8-39.8-1.2-44.2
		c2.4-3.1,3.5-3.6,6.4-1.6c2.5,1.3,2.9,3.4,2.7,11.5c-0.2,5.3,0.4,33.1,5.8,29.8c8.7-5.3,34.9-81,38.8-80.7c9.1-0.1,6.5,52.5,6,63.9
		c-2.3,50.7-5.9,79-13.1,104.7c-5,17.6-15,39.6-22.5,49.2C332.1,426.6,294.6,391.5,302.1,387z"/>
</g>
</svg>
