<svg id="Layer_1" data-name="Layer 1" xmlns="http://www.w3.org/2000/svg" viewBox="0 0 357.5 365.04"><defs><style>.cls-1{stroke:#000;stroke-miterlimit:10;}</style></defs><title>single-tony-logo-black</title><path class="cls-1" d="M191.53,147.95c-9.34,67.33-18,107.47-22,167.79-1.34,18.87-1.28,19.46,4.44,32.51,6.74,15.22,11,32.56,11.21,46.77.41,11-2.23,24.08-5,25.74-1.14.69-4.75.39-8-.42-15.27-4.14-16.91-22.76-16.14-88.32-39.91-39.65-80.31-22-91.08-39.8C47.18,262.82,194,122.77,264.59,79.39c43.23-26.82,66.35-14.36,74.5-.92,2.35,3.88.49,7.49-2,3.39C312.21,41.81,242.83,105.66,191.53,147.95Zm-12.05,12c-8,4.83-119.07,109.83-106.5,130.55,6.76,11.16,66.58,7.61,80.8,31.08.69,1.13,1.56,1.54,2,1.26,1.14-.69,3.9-28.52,4-29.84,3.18-35.87,10.57-80.21,20.24-124.39.86-4.24,1.25-8.23.7-9.13C180.62,159.24,180.16,159.51,179.48,159.93ZM169,355.93c-2.34-3.87-1.07,36.78,3.81,55.62l1.72-5.39C177.63,394.32,172.55,361.27,169,355.93Z" transform="translate(-63 -63.03)"/><path class="cls-1" d="M194.08,361.3c-11.32-18.67,8.74-70.38,21-50.11,1.52,2.5.84,4.47-1.89,6.13-3.64,2.21-7.73,19.63-6.78,28.39.62,6.16,1.51,9.68,2.47,11.27,3.87,6.38,12.88-22.43,14-34,3.15-31.8-8.95-29.16-18.58-28.61l3.37-2.66c9.1-7.08,19.28,2,22.6,7.48,11.31,18.67-3.11,63.23-12.45,68.89C215.53,369.47,197.11,366.31,194.08,361.3Z" transform="translate(-63 -63.03)"/><path class="cls-1" d="M245.91,337.37c-3.86-6.38,4.54-60.36,9.78-63.54,2.27-1.38,6.48.43,8,2.93s-3.84,40.95-3.15,42.08c.14.23.54-.65.95-1.51,1.95-4,29.08-79,46.88-90.69,2.6-1.89,4.92-2.68,6.58.06,5.11,8.44-.82,73.68,13.76,64.85,9.1-5.52,22.12-39.56,24.05-36.37,1.24,2.05-6.23,27.75-10.63,35.4-10.92,20-29.37,7.53-33,1.61-5.61-8.74-5.38-27.89-4.38-39.08,2-18.33,2-18.33-2.55-10.91C287,267,262.52,341.63,262.52,341.63,259.78,343.28,247.57,340.1,245.91,337.37Z" transform="translate(-63 -63.03)"/><path class="cls-1" d="M314.34,407.08c.68-.41,2.33.77,6.14,5,4.31,4.55,18.23,12.62,32.14,4.2,51.48-31.19,52.36-204,52.23-204.18-.83-1.37-3.35,5.77-8.91,21.28s-14.66,32.85-18.53,35.2c-2,1.25-19.37-1.65-22.13-6.21-5.1-8.43-5.21-43.56-1.31-48.41,2.59-3.44,3.87-3.9,7-1.77,2.75,1.45,3.17,3.69,2.94,12.55-.26,5.76.43,36.18,6.35,32.59,9.57-5.8,38.21-88.57,42.41-88.31,9.91-.09,7.06,57.39,6.52,69.86-2.55,55.43-6.47,86.45-14.34,114.58-5.49,19.21-16.44,43.29-24.65,53.88C347.15,450.42,306.14,412.05,314.34,407.08Z" transform="translate(-63 -63.03)"/></svg>