<?xml version="1.0" encoding="utf-8"?>
<!-- Generator: Adobe Illustrator 21.0.0, SVG Export Plug-In . SVG Version: 6.00 Build 0)  -->
<svg version="1.1" id="canvas" xmlns="http://www.w3.org/2000/svg" xmlns:xlink="http://www.w3.org/1999/xlink" x="0px" y="0px"
	 viewBox="0 0 627.9 144.3" style="enable-background:new 0 0 627.9 144.3;" xml:space="preserve">
<style type="text/css">
	.st0{fill:#FFFFFF;stroke:#FFFFFF;}
</style>
<path class="st0" d="M87.3,7.2C87,6.3,86.4,5.6,85.1,5c-1.3-0.6-2.3-0.9-4.4-1s-3.5,0-6.2,0.8s-4.1,1.7-7.1,3.4
	c-3.1,1.7-4.7,2.7-8.2,5.1c-3.5,2.3-5.4,3.6-9.3,6.7C46,23,44,24.7,40,28.4c-3.9,3.7-6.1,5.7-9.9,9.9s-5.8,6.4-9.1,10.9
	c-3.4,4.5-5,6.9-7.7,11.5s-3.9,7-5.8,11.4C5.6,76.4,4.9,78.7,4,82.7s-1.2,6-0.9,9.4c0.3,3.5,0.7,5.2,2.3,7.8
	c1.6,2.6,2.9,3.8,5.6,5.2c2.7,1.4,4.6,1.8,8.1,1.8s5.5-0.5,9.5-1.6s6.1-2.1,10.4-4.1s6.6-3.4,10.9-6c4.4-2.7,6.7-4.2,10.9-7.3
	c4.2-3.1,6.3-4.9,10-8.1c3.7-3.3,5.5-5.2,8.6-8.3c3.1-3.1,4.8-4.7,7-7.3c2.2-2.6,3.2-3.9,4.1-5.7c0.8-1.8,0.6-2.8,0.1-3.4
	c-0.5-0.7-1.4-0.8-2.6,0.1c-1.2,0.9-2.4,1.8-3.5,4.4c-1.1,2.5-1.2,4.6-2,8.3c-0.8,3.6-1.3,5.9-2.2,10c-0.9,4.1-1.4,6.3-2.3,10.6
	c-0.9,4.3-1.3,6.5-2,10.8c-0.8,4.2-1.1,6.4-1.7,10.3s-0.8,5.9-1.4,9.3c-0.5,3.5-0.9,5.1-1.2,7.9c-0.4,2.8-0.4,4.1-0.6,6.2
	c-0.2,2.1-0.3,3-0.3,4.4s-0.1,1.8,0.3,2.6c0.4,0.7,0.7,0.9,1.5,1.1c0.8,0.2,1.6,0.3,2.4,0.1c0.9-0.2,1.1-0.4,1.8-1.2
	c0.7-0.8,0.9-1.3,1.8-2.6s1.4-2.1,2.6-3.8c1.3-1.7,2-2.6,3.6-4.7c1.6-2.1,2.5-3.3,4.4-5.7c2-2.5,3-3.8,5.4-6.6
	c2.3-2.8,3.6-4.2,6.3-7.2c2.6-3,4.1-4.6,7-7.9s4.4-5,7.5-8.4c3.1-3.5,4.6-5.3,7.8-8.9c3.1-3.7,4.7-5.5,7.9-9.3
	c3.1-3.8,4.8-5.8,7.9-9.7c3.1-3.9,4.6-5.9,7.5-9.9s4.3-6,7-9.9c2.6-3.9,4-5.9,6.2-9.7c2.3-3.8,3.3-5.7,5.2-9.1
	c1.8-3.4,2.7-5.1,4-8.1s1.9-4.4,2.4-6.8s0.6-3.6,0.2-5.2c-0.4-1.6-1-2.4-2.2-3s-2.3-0.7-3.9,0.1c-1.5,0.8-2.6,1.6-3.9,3.7
	s-1.7,3.8-2.7,7s-1.5,5.2-2.5,9.2s-1.6,6.2-2.6,10.5s-1.6,6.7-2.5,11.2s-1.3,6.8-2,11.1c-0.7,4.2-1.1,6.4-1.5,10.1s-0.8,5.5-0.5,8.3
	s0.8,4.1,2,5.8s2.1,2.3,4,2.7c1.9,0.5,3.1,0.3,5.3-0.5s3.5-1.6,5.7-3.4s3.2-3.2,5.5-5.4c2.3-2.2,3.5-3.5,5.9-5.6s3.8-3.3,6.1-5.1
	c2.3-1.8,3.7-2.7,5.6-4c1.9-1.3,2.8-2,3.9-2.7c1.2-0.6,1.4-0.9,1.8-0.6c0.4,0.3,0.2,0.7,0.2,2s-0.2,2.2-0.2,4.3c0,2,0,3.5,0.3,5.9
	s0.5,3.8,1.3,6.1c0.8,2.3,1.2,3.5,2.5,5.4s2.1,2.8,4.1,3.9s3.2,1.6,5.8,1.8c2.5,0.2,4,0.1,6.9-0.7c2.9-0.8,4.4-1.7,7.4-3.3
	c3-1.6,4.6-2.7,7.8-4.6c3.1-2,4.8-3.2,7.9-5.3c3.2-2.1,4.8-3.3,7.8-5.3s4.5-3,7.1-4.6c2.6-1.7,3.9-2.4,6-3.8c2.1-1.3,3-1.9,4.3-2.8
	c1.4-0.9,1.9-1.2,2.5-1.7c0.6-0.6,0.6-0.8,0.4-1.1c-0.2-0.4-0.6-0.7-1.3-0.7c-0.7-0.1-1.2-0.1-2,0.4s-1.2,1.1-1.9,2.2
	c-0.8,1.1-1.2,1.9-2,3.3c-0.8,1.4-1.2,2.3-2,3.9c-0.7,1.6-1.1,2.4-1.7,4c-0.6,1.6-0.9,2.5-1.1,4.1c-0.2,1.6-0.3,2.6,0,4.1
	s0.5,2.4,1.4,3.7c0.9,1.3,1.5,1.9,2.9,2.7c1.4,0.8,2.3,1,4,1.1s2.7,0,4.4-0.5c1.7-0.5,2.7-1,4.3-2c1.7-1,2.5-1.7,3.9-3.2
	c1.4-1.4,2.1-2.3,3.2-4s1.6-2.7,2.3-4.6c0.7-1.8,0.9-2.9,1.1-4.6c0.2-1.8,0.1-2.7,0-4.1s-0.3-2.1-0.7-2.9c-0.5-0.8-1-1-1.5-0.9
	s-1.1,0.6-1.2,1.3c0,0.7,0.1,1.3,1,2.2s1.7,1.3,3.4,2.2c1.8,0.8,2.9,1.2,5.3,2s3.9,1.4,6.7,2c2.8,0.6,4.4,0.8,7.4,1.1
	s4.6,0.3,7.6,0.3c3-0.1,4.6-0.1,7.5-0.6c2.9-0.4,4.3-0.8,6.8-1.5s3.9-1.1,5.9-1.9c2-0.9,3.2-1.5,4.2-2.4s1.1-1.5,0.9-1.9
	c-0.2-0.3-0.8-0.4-1.7,0.2c-0.9,0.6-1.8,1.3-2.9,3s-1.7,3.1-2.4,5.5c-0.7,2.4-1,3.9-1.1,6.3s-0.1,3.8,0.5,5.9
	c0.6,2.2,1.2,3.3,2.7,4.9s2.7,2.4,5,3.1s3.7,0.9,6.5,0.6s4.4-0.8,7.5-2s4.7-2.3,8-4.1c3.2-1.9,5-3.1,8.2-5.3
	c3.2-2.2,4.9-3.4,7.9-5.6s4.9-3.4,7-5.3s2.9-3,3.6-4.1s0.5-1.4,0-1.4c-0.4,0.1-1.3,0.5-2.2,1.8c-1,1.3-1.8,2.5-2.6,4.8
	c-0.8,2.2-1,3.9-1.2,6.4s-0.2,3.9,0.3,6.2c0.5,2.3,0.8,3.5,2,5.3c1.3,1.8,2.2,2.7,4.2,3.7s3.3,1.3,6,1.3c2.6,0,4.1-0.2,7.1-1.2
	s4.5-1.9,7.7-3.6s5-2.8,8.3-4.9c3.4-2.1,5.2-3.3,8.6-5.5s5.1-3.4,8.5-5.4c3.3-2,5-3.1,8.2-4.8c3.2-1.6,4.8-2.4,7.6-3.4
	c2.8-1,4.2-1.4,6.5-1.8c2.4-0.4,3.4-0.5,5.3-0.1c2,0.3,2.9,0.8,4.5,1.8s2.4,1.8,3.6,3.4c1.3,1.6,1.9,2.6,2.7,4.5
	c0.8,1.9,1.2,3,1.4,5c0.2,2,0.2,3.1-0.3,5s-0.9,2.9-2.2,4.6c-1.3,1.7-2.2,2.5-4.1,3.9s-3.1,2.1-5.5,3.1s-3.8,1.4-6.4,1.9
	s-4,0.7-6.4,0.8c-2.4,0.1-3.6,0-5.5-0.2s-2.7-0.5-3.9-0.6c-1.2-0.1-1.7-0.1-2.1,0.3c-0.4,0.3-0.5,0.8,0.3,1.5
	c0.8,0.6,1.5,1.2,3.7,1.6s3.8,0.3,7.2,0.3c3.4,0,5.5-0.1,9.9-0.1c4.4-0.1,6.9,0,12.1-0.2s8-0.3,13.8-0.8s9-0.8,15-1.7
	c6-0.9,9.2-1.4,15.1-2.8c5.9-1.3,9-2.1,14.4-3.8c5.5-1.7,8.3-2.6,12.9-4.5c4.7-1.9,6.8-3,10.4-5c3.6-2.1,5.3-3,7.6-5.3
	c2.2-2.3,3-3.6,3.6-6s0.4-3.8-0.5-5.9c-0.9-2.1-2-3.2-4.2-4.5s-3.9-1.8-6.9-2.1s-4.8,0.1-8.1,0.8c-3.3,0.8-5.1,1.5-8.3,3
	s-4.9,2.6-7.6,4.8c-2.7,2.2-4.1,3.4-6,6.2c-1.9,2.7-2.8,4.3-3.4,7.4c-0.6,3.1-0.7,4.9,0.2,7.9s1.8,4.6,4.2,7.2
	c2.4,2.5,4.1,3.7,7.8,5.5s6,2.5,10.7,3.5s7.5,1.2,12.9,1.5c5.4,0.2,8.5,0.1,14.3-0.3s8.9-0.8,14.6-1.7c5.7-0.9,8.7-1.5,14-2.7
	s8-1.9,12.6-3.1c4.6-1.3,7.1-1.9,10.4-3.1c3.3-1.2,4.4-1.9,6.2-3c1.8-1.2,2.3-2,2.7-2.8s0.1-1.2-0.8-1.3c-0.8-0.1-1.5,0.3-3.4,0.9
	s-2.9,1-6.2,2.2c-3.2,1.2-5.5,2.3-10,3.8c-4.5,1.4-7.1,2.2-12.3,3.5c-5.2,1.2-8.2,1.9-13.8,2.8s-8.7,1.3-14.4,1.6
	c-5.7,0.3-8.7,0.4-13.9,0s-7.9-0.7-12.2-1.9c-4.3-1.1-6.4-2-9.5-3.8c-3.1-1.7-4.3-3-6.1-5s-2.3-3.1-2.9-5.1c-0.6-2.1-0.6-3.1,0-5.3
	c0.5-2.1,1.2-3.3,2.7-5.4s2.6-3.3,4.9-5.1c2.3-1.8,3.8-2.8,6.6-4s4.5-1.6,7.2-2.1s4.2-0.4,6.5-0.3s3.4,0.2,5,0.6
	c1.6,0.4,2.2,0.7,2.8,1.5c0.6,0.9,0.8,1.4,0.2,2.7c-0.5,1.3-1.1,2.1-3,4c-1.8,1.9-3,3.2-6.2,5.3c-3.2,2.1-5.3,3.3-9.7,5.3
	s-7.2,3-12.5,4.7s-8.4,2.5-14.2,3.8s-9,1.8-14.9,2.6c-6,0.8-9.1,1.1-14.8,1.5c-5.7,0.4-8.5,0.4-13.6,0.4c-5.1-0.1-7.5-0.2-11.8-0.6
	s-6.3-0.9-9.6-1.4s-4.8-1.1-7.2-1.1c-2.4,0.1-3.5,0.3-4.8,1.3c-1.3,0.9-1.7,2-1.6,3.4c0.1,1.3,0.8,2.3,2.3,3.3s2.6,1.2,4.9,1.7
	c2.3,0.4,3.7,0.6,6.5,0.6s4.5-0.2,7.5-0.8c3-0.6,4.7-1.1,7.6-2.3c2.9-1.3,4.3-2,6.7-3.9c2.4-1.9,3.5-3,5.2-5.4s2.3-3.8,3-6.5
	s0.8-4.2,0.6-7c-0.2-2.8-0.7-4.3-1.8-6.8c-1.1-2.5-2-3.9-3.8-5.9s-3-3-5.3-4.3s-3.7-1.8-6.4-2.2c-2.7-0.5-4.1-0.5-7.1,0
	c-2.9,0.5-4.4,1.1-7.5,2.4c-3.1,1.3-4.7,2.2-8,4s-5,3-8.3,5.1c-3.4,2.1-5.1,3.3-8.5,5.4s-5.3,3.3-8.6,5.1s-5.2,2.8-8.3,4.1
	c-3.1,1.3-4.7,1.7-7.3,2.4c-2.6,0.7-3.7,1-5.6,1.3c-1.8,0.2-2.5,0.3-3.7-0.1c-1.2-0.3-1.6-0.7-2.1-1.6c-0.5-1-0.6-1.6-0.5-3.2
	c0.1-1.5,0.4-2.5,1-4.5s1.4-3.2,1.9-5.4c0.5-2.2,0.7-3.7,0.5-5.6s-0.6-2.9-1.6-3.9s-1.7-1.3-3.5-1c-1.8,0.4-3,1-5.4,2.8
	c-2.4,1.7-3.6,3.6-6.4,5.9c-2.8,2.3-4.4,3.5-7.5,5.6s-4.9,3.2-8,4.7c-3.1,1.6-4.8,2.2-7.5,3.1c-2.8,0.9-4.1,1.1-6.2,1.4
	s-3,0.5-4.4,0.2c-1.4-0.2-2-0.5-2.7-1.3c-0.8-0.8-1-1.3-1.1-2.6c-0.1-1.3,0.1-2.2,0.6-3.9c0.5-1.7,1.1-2.8,2-4.7
	c0.8-2,1.6-3.1,2.1-5.1s0.7-3.1,0.4-4.7c-0.3-1.6-0.7-2.4-1.8-3.3c-1.1-0.8-1.9-1-3.6-0.9s-2.7,0.8-4.7,1.5s-3,1.2-5.3,1.9
	c-2.3,0.6-3.6,0.9-6.1,1.3c-2.6,0.4-4,0.5-6.7,0.5s-4.2-0.1-6.8-0.4c-2.7-0.4-4-0.7-6.5-1.4s-3.8-1.3-5.9-2.2s-3.1-1.5-4.7-2.1
	c-1.7-0.7-2.3-1.1-3.5-1.3c-1.3-0.2-1.9-0.1-2.9,0.3c-1,0.4-1.6,1-2.3,1.8c-0.6,0.8-0.8,1.2-0.9,2s0,1.3,0,2.3c0,1.1,0.1,1.7-0.1,3
	s-0.3,2-0.8,3.3s-0.9,2-1.8,3.3c-0.8,1.2-1.4,1.9-2.5,2.9s-1.8,1.5-3,2.2s-1.9,1-2.9,1.5c-1.1,0.4-1.6,0.5-2.4,0.7
	c-0.8,0.1-1.2,0.1-1.7,0s-0.7-0.2-0.9-0.7c-0.3-0.5-0.3-0.8-0.3-1.6c0-0.8,0-1.3,0.3-2.4s0.6-1.7,1.1-2.9c0.6-1.2,1-2,1.8-3.3
	c0.8-1.3,1.2-2.1,2-3.3s1.4-1.6,2.1-2.7c0.7-1.1,1.3-1.5,1.5-2.6c0.3-1.1,0.2-1.9-0.1-2.9c-0.3-1-0.7-1.7-1.5-2.3s-1.2-0.8-2.4-0.7
	c-1.2,0-1.8,0.3-3.5,1s-2.8,1.2-4.9,2.6c-2.2,1.3-3.4,2.3-6,4.1s-4,3-6.9,5s-4.6,3.2-7.8,5.3c-3.1,2-4.8,3.2-7.9,4.9
	s-4.8,2.6-7.7,3.8c-2.9,1.2-4.4,1.6-6.7,2.3c-2.3,0.7-3.3,1-5,1.2c-1.7,0.1-2.3,0-3.5-0.6c-1.1-0.6-1.5-1-2.1-2.3s-0.8-2.2-1.1-4.1
	s-0.1-3-0.3-5.3c-0.2-2.2,0-3.7-0.5-5.9S199,57.8,198,56c-1-1.7-1.7-2.6-3.3-3.4c-1.6-0.8-2.7-1-4.9-0.7c-2.1,0.3-3.4,0.9-5.7,2.2
	s-3.5,2.5-6,4.4s-3.8,3.2-6.3,5.3c-2.5,2.1-3.9,3.3-6.3,5.3s-3.9,2.9-5.9,4.6s-2.8,2.7-4,3.8c-1.3,1.2-1.6,1.7-2.2,1.9
	c-0.6,0.2-0.7,0.1-0.9-0.9c-0.2-1.1-0.2-2-0.2-4.4c-0.1-2.4-0.3-4.1-0.1-7.6s0.4-5.7,1-9.8s1-6.5,1.9-10.9s1.5-6.7,2.7-10.9
	s1.8-6.4,3.1-10.1c1.4-3.7,2.3-5.5,3.6-8.3c1.3-2.9,2.3-4.1,3.1-6c0.8-2,1-2.8,1.1-3.9s-0.2-1.4-0.5-1.4s-0.5,0.2-0.9,1.2
	s-0.5,1.9-1.2,4c-0.6,2.1-0.9,3.4-1.9,6.3s-1.6,4.6-3.2,8c-1.6,3.4-2.5,5.3-4.7,9c-2.1,3.7-3.4,5.8-5.9,9.6c-2.5,3.9-4,5.9-6.8,9.8
	s-4.4,5.9-7.4,9.8s-4.7,5.8-7.8,9.6c-3.1,3.8-4.8,5.6-7.9,9.2c-3.2,3.6-4.8,5.4-7.9,8.8s-4.6,5.1-7.6,8.2c-3,3.2-4.5,4.7-7.3,7.6
	s-4.2,4.3-6.7,6.9s-3.8,3.8-6,6.1c-2.2,2.3-3.4,3.3-5.2,5.3c-1.8,2-2.6,3.1-3.9,4.8c-1.4,1.7-2,2.5-3,3.9s-1.6,1.9-2.1,3.1
	c-0.4,1.2-0.4,2-0.1,2.9s1.1,1.4,1.8,1.6c0.7,0.3,1.3,0.2,1.8-0.4c0.6-0.6,0.7-1.1,1.1-2.5s0.5-2.3,0.8-4.4c0.3-2.1,0.6-3.4,0.8-6.2
	c0.3-2.8,0.2-4.6,0.4-8c0.3-3.5,0.4-5.4,0.9-9.3s0.8-6.1,1.5-10.2c0.7-4.2,1.1-6.4,2.1-10.6s1.5-6.4,2.7-10.3c1.2-4,2-6,3.3-9.4
	s2.5-4.9,3.3-7.5c0.7-2.6,0.7-3.9,0.4-5.4c-0.3-1.5-0.8-2.1-1.8-2.2c-1-0.1-1.6,0.2-3,1.5c-1.4,1.4-2,2.7-4.1,5.3s-3.3,4.4-6.2,7.6
	c-2.9,3.2-4.6,5.1-8.1,8.3s-5.6,5-9.7,8s-6.4,4.5-10.7,7s-6.6,3.7-10.7,5.5s-6.3,2.5-9.9,3.3s-5.4,0.9-8.3,0.9s-4-0.3-6-1.2
	c-1.9-0.9-2.6-1.4-3.8-3.2c-1.1-1.8-1.5-3-1.8-5.8s-0.4-4.6,0.2-8.3c0.6-3.7,1.2-5.9,2.8-10.1s2.8-6.6,5.3-11.1S20,55.4,23.2,51
	c3.3-4.4,5.2-6.6,9-10.6s5.9-6,9.8-9.5s6-5.1,9.9-7.9s5.8-3.9,9.3-5.9c3.5-1.9,5.3-2.7,8.3-3.9s4.3-1.4,6.6-2
	c2.3-0.6,3.1-0.6,4.7-0.9c1.6-0.2,2-0.1,3.1-0.3s1.7,0,2.3-0.5C87.1,9,87.6,8.1,87.3,7.2"/>
</svg>
