<svg id="Layer_1" data-name="Layer 1" xmlns="http://www.w3.org/2000/svg" viewBox="0 0 357.5 364.99"><defs><style>.cls-1{fill:#fff;}</style></defs><title>single-logo-white</title><path class="cls-1" d="M191.53,147.95c-9.34,67.33-18,107.47-22,167.79-1.34,18.87-1.28,19.46,4.44,32.51,6.74,15.22,11,32.56,11.21,46.77.41,11-2.23,24.08-5,25.74-1.14.69-4.75.39-8-.42-15.27-4.14-16.91-22.76-16.14-88.32-39.91-39.65-80.31-22-91.08-39.8C47.18,262.82,194,122.77,264.59,79.39c43.23-26.82,66.35-14.36,74.5-.92,2.35,3.88.49,7.49-2,3.39C312.21,41.81,242.83,105.66,191.53,147.95Zm-12.05,12c-8,4.83-119.07,109.83-106.5,130.55,6.76,11.16,66.58,7.61,80.8,31.08.69,1.13,1.56,1.54,2,1.26,1.14-.69,3.9-28.52,4-29.84,3.18-35.87,10.57-80.21,20.24-124.39.86-4.24,1.25-8.23.7-9.13C180.62,159.24,180.16,159.51,179.48,159.93ZM169,355.93c-2.34-3.87-1.07,36.78,3.81,55.62l1.72-5.39C177.63,394.32,172.55,361.27,169,355.93Z" transform="translate(-63 -63.04)"/><path class="cls-1" d="M178,421.63a26.58,26.58,0,0,1-5.9-.82c-15.43-4.18-17.3-21.6-16.52-88.59-23.43-23.19-47.24-26.62-64.64-29.13-12.2-1.76-21.84-3.15-26.37-10.62C53.13,273.6,107.42,215,131.29,190.7,175,146.22,229.67,100.27,264.33,79c21.35-13.25,40.47-18.37,55.28-14.82a31.31,31.31,0,0,1,19.91,14.07c1.33,2.19,1.36,4.22.83,5.19a1.37,1.37,0,0,1-1.18.77h0c-.57,0-1.45-.36-2.47-2.05-4.25-6.84-10.09-10.91-17.36-12.07-28.26-4.54-73.54,33.3-113.5,66.68-4.71,3.94-9.33,7.8-13.81,11.49-2.9,20.9-5.69,38.87-8.39,56.25-5.82,37.46-10.84,69.8-13.55,111.31-1.33,18.79-1.25,19.4,4.4,32.28,6.85,15.48,11.06,33,11.26,47,.42,11.14-2.2,24.35-5.2,26.17A5.24,5.24,0,0,1,178,421.63ZM309.91,64c-12.9,0-28.26,5.35-45.06,15.77C189.85,125.93,48.45,263.95,65.42,292c4.28,7.06,13.71,8.42,25.65,10.15,17.57,2.53,41.64,6,65.35,29.56l.15.15V332c-.78,66.54,1,83.82,15.77,87.83,3.36.83,6.73,1,7.65.48,2.37-1.44,5.14-14.21,4.72-25.29-.2-13.81-4.37-31.22-11.17-46.58-5.74-13.1-5.83-13.71-4.48-32.75,2.71-41.55,7.74-73.92,13.56-111.39,2.71-17.43,5.51-35.46,8.42-56.43l0-.19.15-.12c4.53-3.73,9.19-7.63,14-11.61,40.12-33.52,85.6-71.51,114.3-66.9,7.56,1.22,13.64,5.43,18.05,12.54.71,1.16,1.29,1.58,1.62,1.58,0,0,.18,0,.33-.26.4-.73.25-2.44-.81-4.19a30.32,30.32,0,0,0-19.29-13.61A40.51,40.51,0,0,0,309.91,64ZM172.76,413.36l-.43-1.68c-4.27-16.49-6.42-55.38-3.87-56.45.17-.07.6-.17,1,.44,3.82,5.78,8.65,38.93,5.58,50.62Zm-4-56.85c-1.06,4.32,0,35.52,4.1,53.2L174,406C177,394.89,172.33,362.73,168.77,356.51Zm-.25-.4h0Zm-13-32.7a1.42,1.42,0,0,1-.33,0,3.2,3.2,0,0,1-1.79-1.55c-8.3-13.7-32.74-18.13-52.38-21.7-14.27-2.59-25.55-4.64-28.42-9.38-6.79-11.21,21.05-45.25,45.61-71.84,27.16-29.4,56.87-56.86,61.06-59.4h0c.71-.43,1.14-.7,1.55-.6a.66.66,0,0,1,.41.3c.92,1.5-.37,8.16-.63,9.49-10,45.64-17.17,89.8-20.23,124.34-1.93,19.51-3.37,29.68-4.27,30.23A1.08,1.08,0,0,1,155.48,323.41ZM180.42,160c-.2.1-.47.27-.68.39h0c-4,2.45-34.23,30.42-60.84,59.23-34.38,37.22-50.54,62.31-45.49,70.64,2.64,4.36,14.28,6.47,27.75,8.92,19.84,3.6,44.52,8.08,53.06,22.16a2.27,2.27,0,0,0,1.17,1.1.24.24,0,0,0,.11,0c.75-1.45,2.49-15.82,3.84-29.48,3.06-34.58,10.25-78.77,20.25-124.45C180.46,164.06,180.66,161,180.42,160ZM155.53,322.4h0Z" transform="translate(-63 -63.04)"/><path class="cls-1" d="M194.08,361.3c-11.32-18.67,8.74-70.38,21-50.11,1.52,2.5.84,4.47-1.89,6.13-3.64,2.21-7.73,19.63-6.78,28.39.62,6.16,1.51,9.68,2.47,11.27,3.87,6.38,12.88-22.43,14-34,3.15-31.8-8.95-29.16-18.58-28.61l3.37-2.66c9.1-7.08,19.28,2,22.6,7.48,11.31,18.67-3.11,63.23-12.45,68.89C215.53,369.47,197.11,366.31,194.08,361.3Z" transform="translate(-63 -63.04)"/><path class="cls-1" d="M215.58,368.91a47.42,47.42,0,0,1-10-1.45c-3.68-.9-10.14-2.87-12-5.9h0c-6.45-10.64-2.9-32.69,4.31-45.83,3.38-6.16,7.19-9.59,10.71-9.67,2.55,0,4.86,1.59,6.85,4.87a4.67,4.67,0,0,1,.76,3.56,5.54,5.54,0,0,1-2.82,3.26c-3.44,2.09-7.48,19.3-6.54,27.91.7,7,1.69,9.9,2.4,11.07.47.77.86.68,1,.65,3.95-.91,11.05-24,12-34.44,1.31-13.19.1-21.5-3.68-25.41-3.29-3.4-8.11-3.08-12.77-2.76l-1.6.1-1.58.09,4.62-3.64a11.85,11.85,0,0,1,9.76-2.49c5.76,1.06,11.08,6,13.58,10.1,7.13,11.76,3.48,31.68,1.58,39.7-3.41,14.39-9.38,27-14.19,29.88A5.43,5.43,0,0,1,215.58,368.91Zm-6.8-61.86h-.1c-3.15.07-6.65,3.32-9.85,9.15-7.09,12.9-10.61,34.49-4.33,44.83h0c1.19,2,5.43,4,11.35,5.45,5.55,1.36,10.75,1.74,11.69,1.17,9.38-5.68,23.17-50.22,12.28-68.21-2-3.29-7.08-8.56-12.9-9.64a10.89,10.89,0,0,0-9,2.29l-2.11,1.66c4.65-.31,9.93-.67,13.55,3.06,4,4.13,5.3,12.7,4,26.2-1,10.13-8.09,34.23-12.81,35.32a1.87,1.87,0,0,1-2.08-1.11c-1.1-1.83-2-5.69-2.54-11.48-.91-8.36,3-26.44,7-28.87a4.63,4.63,0,0,0,2.37-2.64,3.68,3.68,0,0,0-.65-2.8C212.9,308.54,210.92,307.06,208.79,307.06Z" transform="translate(-63 -63.04)"/><path class="cls-1" d="M245.91,337.37c-3.86-6.38,4.54-60.36,9.78-63.54,2.27-1.38,6.48.43,8,2.93s-3.84,40.95-3.15,42.08c.14.23.54-.65.95-1.51,1.95-4,29.08-79,46.88-90.69,2.6-1.89,4.92-2.68,6.58.06,5.11,8.44-.82,73.68,13.76,64.85,9.1-5.52,22.12-39.56,24.05-36.37,1.24,2.05-6.23,27.75-10.63,35.4-10.92,20-29.37,7.53-33,1.61-5.61-8.74-5.38-27.89-4.38-39.08,2-18.33,2-18.33-2.55-10.91C287,267,262.52,341.63,262.52,341.63,259.78,343.28,247.57,340.1,245.91,337.37Z" transform="translate(-63 -63.04)"/><path class="cls-1" d="M260.11,342.55c-4.75,0-13.18-2.55-14.63-4.93h0c-2.2-3.64-.61-20.21,1.41-33.31s5.48-29.07,8.54-30.92c2.56-1.55,7.07.43,8.69,3.1.92,1.52-.17,12.41-1.81,27.62-.56,5.18-1.13,10.49-1.29,13l0-.05c.28-.57,1.1-2.67,2.34-5.84,7.27-18.54,29.38-75,44.71-85.06,2-1.46,3.5-2,4.82-1.73a3.83,3.83,0,0,1,2.47,2c1.91,3.16,2.31,13.5,2.78,25.48.63,16.38,1.42,36.75,6.74,39.62a3.43,3.43,0,0,0,3.55-.42c5.05-3.06,11.59-15.61,16.37-24.77,4.57-8.77,6.29-11.84,7.59-11.88a.86.86,0,0,1,.78.45c1.44,2.39-6.21,28.23-10.63,35.91-3.9,7.15-9.32,11-15.66,11.16h-.37c-7.74,0-15.41-5.6-17.81-9.55-6.48-10.11-5-32.7-4.45-39.38.9-8.35,1.47-13.62,1.2-14.88a34.64,34.64,0,0,0-2.83,4.28c-15,24.45-39.42,98.58-39.67,99.33l-.06.18-.16.1A5.47,5.47,0,0,1,260.11,342.55Zm-13.77-5.45c1.51,2.48,13,5.48,15.77,4.18,1.39-4.22,25-75.41,39.7-99.35,2.35-3.86,3.15-5.15,4-4.85,1.1.37.89,2.62-.57,16.07-1.21,13.6-.72,30.93,4.3,38.76,1.89,3.12,9,9.08,16.94,9.08h.37c6-.14,11-3.72,14.81-10.65,4.65-8.08,11.45-32.58,10.67-34.84-1,.54-4,6.25-6.66,11.31-5.1,9.78-11.45,22-16.74,25.16a4.39,4.39,0,0,1-4.55.45c-5.83-3.13-6.59-23-7.27-40.46-.44-11.35-.85-22.06-2.63-25a2.85,2.85,0,0,0-1.81-1.49c-1-.21-2.29.3-4.05,1.58-15.09,9.94-37.12,66.13-44.35,84.6-1.25,3.2-2.08,5.31-2.37,5.91l0,.08c-.62,1.31-.83,1.72-1.28,1.75l-.3,0-.21-.29c-.33-.53-.05-3.51,1.2-15.09,1.1-10.21,2.77-25.65,2-27-1.33-2.2-5.27-4-7.31-2.76s-5.56,14-8.07,30.22c-2.55,16.5-3.19,29.92-1.55,32.64Z" transform="translate(-63 -63.04)"/><path class="cls-1" d="M314.34,407.08c.68-.41,2.33.77,6.14,5,4.31,4.55,18.23,12.62,32.14,4.2,51.48-31.19,52.36-204,52.23-204.18-.83-1.37-3.35,5.77-8.91,21.28s-14.66,32.85-18.53,35.2c-2,1.25-19.37-1.65-22.13-6.21-5.1-8.43-5.21-43.56-1.31-48.41,2.59-3.44,3.87-3.9,7-1.77,2.75,1.45,3.17,3.69,2.94,12.55-.26,5.76.43,36.18,6.35,32.59,9.57-5.8,38.21-88.57,42.41-88.31,9.91-.09,7.06,57.39,6.52,69.86-2.55,55.43-6.47,86.45-14.34,114.58-5.49,19.21-16.44,43.29-24.65,53.88C347.15,450.42,306.14,412.05,314.34,407.08Z" transform="translate(-63 -63.04)"/><path class="cls-1" d="M344.75,428a38,38,0,0,1-9.53-1.22c-12.81-3.33-21.68-12.21-22.39-17.1a2.8,2.8,0,0,1,1.25-3.06h0c.89-.54,2.29.12,6.77,5.09,4.55,4.8,18.25,12.14,31.5,4.11,49.17-29.8,52-191.18,52-203-1.16,1.8-3.75,9-7.46,19.39l-.48,1.34c-5.66,15.81-14.77,33-18.75,35.46-1.36.83-7.09.13-11.83-1-3.39-.83-9.33-2.62-11-5.35-5.18-8.55-5.23-44.06-1.27-49,2.6-3.45,4.16-4.26,7.7-1.87,3,1.59,3.39,4.2,3.16,13-.26,5.92.48,29.89,4.42,32.23a1,1,0,0,0,1.18-.07c5.25-3.18,16.95-31.49,26.34-54.23,10.28-24.88,14.36-34.28,16.36-34.14a3.31,3.31,0,0,1,2.43,1.14c4.9,5.07,6.41,27.3,4.61,68l-.06,1.28c-2.54,55.27-6.43,86.36-14.36,114.69-5.52,19.34-16.62,43.59-24.74,54C368,424,354.73,428,344.75,428ZM314.6,407.51a1.88,1.88,0,0,0-.78,2.06c.66,4.51,9.43,13.09,21.66,16.28,9.31,2.42,27.45,3.2,44.34-18.81,8.06-10.38,19.08-34.47,24.57-53.71,7.91-28.25,11.79-59.28,14.33-114.46l.06-1.28c1.76-39.81.3-62.43-4.33-67.22a2.43,2.43,0,0,0-1.74-.83c-1.77.51-9,18.05-15.41,33.53-9.95,24.07-21.22,51.35-26.75,54.71a2,2,0,0,1-2.21.08c-4.91-2.91-5.06-29.63-4.9-33.12.23-8.86-.19-10.78-2.67-12.09-2.89-1.95-3.9-1.68-6.39,1.63-3.74,4.64-3.55,39.77,1.33,47.85,1.06,1.74,4.93,3.57,10.37,4.9,5.65,1.38,10.33,1.6,11.08,1.14,3.75-2.28,12.83-19.58,18.32-34.94l.48-1.34c5.88-16.42,7.32-20.31,8.59-20.44a.75.75,0,0,1,.73.4c.21.35-.15,44.39-6.69,90.81-6.07,43.08-18.93,97.84-45.7,114.06-13.77,8.34-28,.72-32.76-4.28-4.57-5.07-5.4-5-5.52-4.91Z" transform="translate(-63 -63.04)"/></svg>