<?xml version="1.0" encoding="utf-8"?>
<!-- Generator: Adobe Illustrator 21.0.0, SVG Export Plug-In . SVG Version: 6.00 Build 0)  -->
<svg version="1.1" id="Layer_1" xmlns="http://www.w3.org/2000/svg" xmlns:xlink="http://www.w3.org/1999/xlink" x="0px" y="0px"
	 viewBox="0 0 500 500" style="enable-background:new 0 0 500 500;" xml:space="preserve">
<style type="text/css">
	.st0{fill:#E0021B;}
	.st1{fill:#FFFFFF;stroke:#FFFFFF;stroke-width:3;stroke-miterlimit:10;}
</style>
<g>
	<circle class="st0" cx="250" cy="250" r="229"/>
	<g>
		<path class="st1" d="M192.3,153.3c-8.4,60.2-16.1,96.1-19.7,150.1c-1.2,16.9-1.1,17.4,4,29.1c6,13.6,9.9,29.1,10,41.8
			c0.4,9.8-2,21.5-4.4,23c-1,0.6-4.2,0.4-7.2-0.4c-13.7-3.7-15.1-20.4-14.4-79c-35.7-35.5-71.8-19.7-81.5-35.6
			C63.2,256.1,194.6,130.8,257.7,92c38.7-24,59.4-12.8,66.6-0.8c2.1,3.5,0.4,6.7-1.8,3C300.3,58.4,238.2,115.5,192.3,153.3z
			 M181.6,164.1c-7.1,4.3-106.5,98.2-95.3,116.8c6,10,59.6,6.8,72.3,27.8c0.6,1,1.4,1.4,1.8,1.1c1-0.6,3.5-25.5,3.6-26.7
			c2.8-32.1,9.5-71.8,18.1-111.3c0.8-3.8,1.1-7.4,0.6-8.2C182.6,163.4,182.2,163.7,181.6,164.1z M172.2,339.4
			c-2.1-3.5-1,32.9,3.4,49.8l1.5-4.8C179.9,373.7,175.3,344.2,172.2,339.4z"/>
		<path class="st1" d="M194.6,344.2c-10.1-16.7,7.8-63,18.8-44.8c1.4,2.2,0.8,4-1.7,5.5c-3.3,2-6.9,17.6-6.1,25.4
			c0.6,5.5,1.3,8.7,2.2,10.1c3.5,5.7,11.5-20.1,12.5-30.4c2.8-28.4-8-26.1-16.6-25.6l3-2.4c8.1-6.3,17.3,1.8,20.2,6.7
			c10.1,16.7-2.8,56.6-11.1,61.6C213.8,351.5,197.3,348.7,194.6,344.2z"/>
		<path class="st1" d="M241,322.8c-3.4-5.7,4.1-54,8.8-56.8c2-1.2,5.8,0.4,7.2,2.6c1.4,2.2-3.4,36.6-2.8,37.6
			c0.1,0.2,0.5-0.6,0.8-1.4c1.7-3.6,26-70.6,41.9-81.1c2.3-1.7,4.4-2.4,5.9,0.1c4.6,7.5-0.7,65.9,12.3,58
			c8.1-4.9,19.8-35.4,21.5-32.5c1.1,1.8-5.6,24.8-9.5,31.7c-9.8,17.9-26.3,6.7-29.5,1.4c-5-7.8-4.8-24.9-3.9-35
			c1.8-16.4,1.8-16.4-2.3-9.8c-13.6,22.2-35.5,88.9-35.5,88.9C253.4,328.1,242.5,325.2,241,322.8z"/>
		<path class="st1" d="M302.2,385.1c0.6-0.4,2.1,0.7,5.5,4.5c3.9,4.1,16.3,11.3,28.7,3.8c46-27.9,46.8-182.4,46.7-182.6
			c-0.7-1.2-3,5.2-8,19c-5,13.9-13.1,29.4-16.6,31.5c-1.8,1.1-17.3-1.5-19.8-5.6c-4.6-7.5-4.7-39-1.2-43.3c2.3-3.1,3.5-3.5,6.3-1.6
			c2.5,1.3,2.8,3.3,2.6,11.2c-0.2,5.2,0.4,32.4,5.7,29.2c8.6-5.2,34.2-79.2,37.9-79c8.9-0.1,6.3,51.3,5.8,62.5
			c-2.3,49.6-5.8,77.3-12.8,102.5c-4.9,17.2-14.7,38.7-22.1,48.2C331.5,423.9,294.9,389.6,302.2,385.1z"/>
	</g>
</g>
</svg>
